<svg width="1024" height="1024" xmlns="http://www.w3.org/2000/svg" version="1.1">

 <g>
  <title>Layer 1</title>
  <g stroke="null" id="svg_4">
   <path stroke="null" id="svg_2" d="m944.96059,258.85348q-1.24415,0.11429 -2.77229,-0.34288q-20.93414,-6.18808 -44.57295,-9.66582q-9.08769,-1.33885 -17.7832,-0.09796q-19.25724,2.743 -30.75209,6.05746c-47.99436,13.86196 -84.53444,50.71288 -110.93201,100.03793q-9.65567,18.05809 -15.9846,31.5935q-22.0701,47.16983 -22.15124,47.34943q-26.64099,56.37848 -32.40194,68.85261q-14.03723,30.36895 -25.20752,53.97836q-2.62353,5.55131 -25.18047,53.96203q-5.44991,11.70674 -88.76724,191.3407q-6.11255,13.15988 -11.26495,24.57272c-6.55882,14.49872 -11.69769,23.26653 -20.02808,39.78985c-10.1966,20.24597 -16.05221,32.19762 -34.755,34.40181c-16.83657,1.99194 -34.47101,0.6531 -50.72607,0.11429c-7.00509,-0.22858 -17.48569,-0.29389 -21.97544,-7.39631c-7.60012,-12.04961 -13.18526,-23.44613 -21.54269,-40.42662q-8.1681,-16.5723 -13.86143,-29.91178c-16.62019,-38.85919 -34.5251,-74.95905 -53.07913,-115.56528q-39.89387,-87.36787 -79.21976,-172.82544q-20.23093,-43.96966 -116.23316,-253.35213q-11.90054,-25.96055 -24.58544,-52.67216q-0.70321,-1.48579 -1.00073,-2.48176a1.67689,2.00827 79.8 0 1 1.55518,-2.71035q74.98695,-0.68575 148.36463,-0.08164q17.52626,0.13062 26.93851,0.99597a2.96161,3.55937 76.7 0 1 2.29897,1.7307q5.15239,10.46586 14.57817,30.43426q33.01049,69.88123 85.4405,185.92001c7.64069,16.89885 17.97253,38.58163 25.32923,53.66814q4.19224,8.63719 8.65494,15.60899q2.82638,4.4084 7.14033,3.64101a3.01571,3.55937 22.2 0 0 1.29824,-0.63677q3.93529,-3.49406 7.31613,-8.60454q7.74888,-11.75572 14.29418,-25.97688q37.81128,-82.22474 66.92704,-147.01183q16.43087,-36.5407 30.45458,-63.23599q17.01237,-32.36089 39.86682,-57.22751c44.5459,-48.50868 102.43935,-72.78751 162.41539,-74.11003q17.06646,-0.37553 43.63984,3.26548c63.51916,8.73515 128.26894,48.41072 172.13867,104.39734q4.94954,6.30237 7.05919,10.41688a1.19005,1.43681 0 0 1 -0.93311,2.2042z" fill="#0000bf"/>
  </g>
 </g>
</svg>